ply
format ascii 1.0
element vertex 1089
property float x
property float y
property float z
property uchar red
property uchar green
property uchar blue
end_header
636.75712 211.090051 813.934016 254 251 214
636.75712 208.617139 813.934016 249 246 208
637.777575 206.681217 812.038699 248 243 202
637.777575 204.203121 812.038699 248 243 202
637.777575 201.725025 812.038699 255 250 211
635.165252 218.508787 812.036901 246 245 209
635.165252 216.035875 812.036901 204 206 153
635.165252 213.562963 812.036901 186 188 135
634.148134 210.542693 813.936195 184 183 115
634.148134 208.074965 813.936195 179 179 111
634.148134 205.607237 813.936195 180 178 105
634.148134 203.13951 813.936195 181 179 107
634.148134 200.671782 813.936195 185 183 113
634.148134 198.204054 813.936195 190 188 118
635.165252 196.252579 812.036901 208 208 151
635.165252 193.779667 812.036901 240 240 184
636.18237 191.812639 810.137608 255 253 213
632.052713 222.594691 812.994693 245 241 208
632.052713 220.129556 812.994693 208 208 151
632.052713 217.66442 812.994693 176 176 120
628.504481 213.247239 819.656142 171 175 92
628.504481 210.800249 819.656142 176 181 97
627.99759 208.079579 820.607777 178 187 91
627.99759 205.635181 820.607777 183 192 95
627.4907 202.922287 821.559412 184 191 93
627.4907 200.480481 821.559412 183 190 92
627.4907 198.038675 821.559412 179 185 90
627.4907 195.596869 821.559412 176 183 87
627.4907 193.155062 821.559412 168 173 89
627.4907 190.713256 821.559412 168 173 89
629.011371 189.030276 818.704506 186 185 122
629.011371 186.580694 818.704506 216 215 152
631.038933 185.122142 814.897964 243 239 197
630.465851 227.524962 811.103545 255 255 228
629.455408 224.481362 813.010793 237 231 179
629.455408 222.021411 813.010793 185 180 127
626.929299 218.14122 817.778913 177 180 92
626.929299 215.69423 817.778913 187 190 103
625.413634 212.410649 820.639785 189 197 92
625.413634 209.971434 820.639785 189 197 92
624.908412 207.258541 821.593409 188 197 87
624.908412 204.821919 821.593409 187 196 86
624.908412 202.385297 821.593409 184 193 85
624.908412 199.948675 821.593409 183 192 84
624.908412 197.512054 821.593409 181 191 85
624.908412 195.075432 821.593409 177 187 82
625.918856 193.155062 819.686161 176 186 82
625.918856 190.713256 819.686161 177 187 84
625.918856 188.27145 819.686161 173 177 85
625.918856 185.829644 819.686161 167 171 79
628.444964 184.626627 814.918041 181 178 113
628.444964 182.17186 814.918041 233 230 165
629.455408 180.20224 813.010793 255 255 217
627.36833 229.106848 812.079234 249 245 199
627.36833 226.649489 812.079234 209 206 159
626.864777 223.902898 813.034847 189 188 107
626.864777 221.448131 813.034847 203 202 121
625.354117 218.14122 815.901685 216 222 118
625.354117 215.69423 815.901685 204 209 105
623.843458 212.410649 818.768522 193 202 90
623.843458 209.971434 818.768522 191 201 88
623.339905 207.258541 819.724135 190 200 85
623.339905 204.821919 819.724135 186 195 81
622.836352 202.116802 820.679748 187 196 84
622.836352 199.682773 820.679748 194 203 91
623.339905 197.512054 819.724135 184 197 88
623.339905 195.075432 819.724135 175 189 80
623.339905 192.63881 819.724135 177 190 81
623.339905 190.202188 819.724135 180 193 84
624.347011 188.27145 817.81291 185 198 91
624.347011 185.829644 817.81291 171 184 77
625.354117 183.883353 815.901685 169 175 84
625.354117 181.436363 815.901685 164 169 79
627.871883 180.20224 811.123621 212 211 147
627.871883 177.742288 811.123621 252 251 188
624.28082 230.673182 813.066855 230 227 189
624.782705 228.518015 812.109254 184 182 112
624.782705 226.065841 812.109254 181 178 109
624.782705 223.613666 812.109254 200 203 102
624.782705 221.161491 812.109254 219 222 121
623.277051 217.857172 814.982057 199 206 94
623.277051 215.412774 814.982057 192 199 87
621.771398 212.131785 817.854861 207 214 100
621.771398 209.695163 817.854861 226 233 119
621.269513 206.984862 818.812462 237 244 131
621.269513 204.550832 818.812462 218 225 111
621.269513 202.116802 818.812462 187 194 83
621.269513 199.682773 818.812462 202 209 98
621.269513 197.248743 818.812462 196 210 99
621.269513 194.814713 818.812462 178 191 80
621.269513 192.380683 818.812462 168 184 72
621.269513 189.946654 818.812462 172 188 75
621.771398 187.765566 817.854861 187 203 90
621.771398 185.328944 817.854861 187 203 90
623.277051 183.635595 814.982057 173 186 81
623.277051 181.191197 814.982057 165 177 73
624.28082 179.231946 813.066855 169 170 90
624.28082 176.782363 813.066855 195 197 117
621.203322 232.223962 814.066407 233 228 175
621.203322 229.782156 814.066407 171 166 113
622.203754 227.929182 812.147228 178 179 90
622.203754 225.482192 812.147228 194 194 105
622.203754 223.035201 812.147228 199 204 93
622.203754 220.588211 812.147228 198 202 92
621.203322 217.573125 814.066407 194 198 87
621.203322 215.131318 814.066407 218 222 112
619.702675 211.852921 816.945177 245 249 138
619.702675 209.418892 816.945177 242 247 136
619.702675 206.984862 816.945177 225 229 119
619.702675 204.550832 816.945177 202 206 95
619.202459 201.848307 817.904766 185 192 80
619.202459 199.41687 817.904766 193 200 88
619.202459 196.985432 817.904766 187 201 89
619.202459 194.553995 817.904766 181 195 83
619.202459 192.122557 817.904766 162 178 66
619.202459 189.691119 817.904766 158 174 61
619.702675 187.512624 816.945177 175 191 79
619.702675 185.078594 816.945177 193 208 96
620.202891 182.892322 815.985587 178 191 82
620.202891 180.4557 815.985587 171 184 75
621.703538 178.746799 813.106817 169 175 82
621.703538 176.3024 813.106817 168 174 81
619.132931 234.363575 813.154734 230 227 191
619.631478 232.223962 812.193156 170 168 98
619.631478 229.782156 812.193156 184 182 112
619.631478 227.340349 812.193156 196 199 96
619.631478 224.898543 812.193156 199 202 99
619.631478 222.456737 812.193156 203 206 93
619.631478 220.014931 812.193156 203 206 93
619.132931 217.289077 813.154734 225 224 115
619.132931 214.849863 813.154734 241 240 131
618.135836 211.852921 815.077891 218 221 116
618.135836 209.418892 815.077891 189 192 87
617.637289 206.711183 816.039469 191 195 87
617.637289 204.279745 816.039469 191 195 87
617.138742 201.579812 817.001048 186 192 83
617.138742 199.150967 817.001048 184 190 81
617.138742 196.722121 817.001048 194 208 96
617.138742 194.293276 817.001048 179 193 81
617.138742 191.864431 817.001048 159 178 65
617.138742 189.435585 817.001048 155 173 60
617.138742 187.00674 817.001048 166 185 70
617.138742 184.577894 817.001048 179 198 83
618.135836 182.644564 815.077891 178 191 80
618.135836 180.210535 815.077891 171 184 73
619.132931 178.261652 813.154734 172 179 79
619.132931 175.822438 813.154734 174 181 81
621.127119 174.33278 809.308421 171 172 96
621.127119 171.883198 809.308421 207 208 133
617.065876 236.498004 812.247039 232 226 176
617.065876 234.061382 812.247039 175 169 119
617.065876 231.62476 812.247039 182 183 94
617.065876 229.188138 812.247039 197 198 109
617.065876 226.751516 812.247039 202 204 94
617.065876 224.314894 812.247039 203 205 95
617.065876 221.878273 812.247039 205 205 93
617.065876 219.441651 812.247039 220 220 108
617.065876 217.005029 812.247039 204 202 98
617.065876 214.568407 812.247039 161 159 55
616.568998 211.852921 813.210606 164 163 68
616.568998 209.418892 813.210606 181 181 85
616.072119 206.711183 814.174173 202 203 100
616.072119 204.279745 814.174173 195 196 93
615.57524 201.579812 815.13774 181 189 82
615.57524 199.150967 815.13774 181 189 82
615.078362 196.458811 816.101307 181 197 85
615.078362 194.032557 816.101307 172 188 75
615.078362 191.606304 816.101307 159 178 65
615.078362 189.180051 816.101307 162 180 67
615.57524 187.00674 815.13774 168 186 71
615.57524 184.577894 815.13774 170 189 73
616.072119 182.396806 814.174173 173 192 77
616.072119 179.965369 814.174173 172 191 76
616.568998 177.776505 813.210606 168 179 70
616.568998 175.342475 813.210606 168 179 70
619.05339 174.095391 808.392771 173 178 88
619.05339 171.648401 808.392771 171 176 86
624.022176 171.523459 798.757101 215 214 153
624.022176 169.050547 798.757101 255 255 198
615.002159 236.193219 811.34332 193 187 123
615.002159 233.759189 811.34332 181 176 112
615.002159 231.325159 811.34332 201 201 101
615.002159 228.89113 811.34332 197 198 98
615.002159 226.4571 811.34332 203 206 93
615.002159 224.02307 811.34332 204 207 94
615.002159 221.58904 811.34332 208 208 97
615.002159 219.155011 811.34332 226 226 114
615.002159 216.720981 811.34332 149 147 45
615.002159 214.286951 811.34332 120 118 16
614.506949 211.574058 812.308876 109 106 14
614.506949 209.14262 812.308876 122 119 27
614.011739 206.437503 813.274431 171 171 71
614.011739 204.008658 813.274431 189 190 89
613.516529 201.311317 814.239987 179 187 80
613.516529 198.885064 814.239987 182 190 83
613.516529 196.458811 814.239987 172 188 75
613.516529 194.032557 814.239987 169 185 73
613.516529 191.606304 814.239987 164 183 67
613.516529 189.180051 814.239987 163 182 66
613.516529 186.753798 814.239987 163 184 67
613.516529 184.327544 814.239987 166 187 71
613.516529 181.901291 814.239987 171 190 74
613.516529 179.475038 814.239987 170 189 73
615.002159 177.776505 811.34332 162 175 64
615.002159 175.342475 811.34332 163 176 65
617.478209 174.095391 806.515542 171 178 77
617.478209 171.648401 806.515542 175 182 82
622.430308 171.523459 796.859986 180 181 108
622.430308 169.050547 796.859986 238 239 166
612.941779 238.319871 810.443579 233 232 194
612.941779 235.888434 810.443579 174 170 96
612.941779 233.456996 810.443579 186 182 108
612.448238 230.725958 811.411123 202 203 98
612.448238 228.297112 811.411123 203 204 99
612.448238 225.868267 811.411123 206 206 94
612.448238 223.439421 811.411123 208 208 97
612.448238 221.010576 811.411123 210 209 100
612.448238 218.581731 811.411123 212 211 102
612.941779 216.436933 810.443579 186 187 84
612.941779 214.005495 810.443579 175 176 73
612.941779 211.574058 810.443579 174 176 79
612.941779 209.14262 810.443579 111 113 17
612.448238 206.437503 811.411123 93 97 0
612.448238 204.008658 811.411123 135 139 42
611.954696 201.311317 812.378667 176 185 77
611.954696 198.885064 812.378667 183 192 84
611.461155 196.1955 813.346211 175 191 79
611.461155 193.771839 813.346211 174 190 78
610.967614 191.090051 814.313755 166 187 73
610.967614 188.668982 814.313755 166 187 73
610.967614 186.247913 814.313755 164 184 71
610.967614 183.826844 814.313755 166 187 73
611.954696 181.901291 812.378667 169 188 72
611.954696 179.475038 812.378667 165 184 69
612.941779 177.533931 810.443579 162 175 62
612.941779 175.102494 810.443579 163 177 63
614.915944 173.620613 806.573402 170 181 73
614.915944 171.178807 806.573402 177 188 80
620.83844 171.523459 794.962872 177 179 96
620.83844 169.050547 794.962872 198 200 117
622.812606 167.485717 791.092695 255 255 203
611.376609 238.319871 808.578282 183 182 133
610.392864 235.278864 810.517347 181 179 95
610.392864 232.85261 810.517347 194 192 108
610.392864 230.426357 810.517347 202 204 94
610.392864 228.000104 810.517347 202 204 94
610.392864 225.57385 810.517347 205 205 93
610.392864 223.147597 810.517347 205 205 93
610.392864 220.721344 810.517347 204 203 94
610.392864 218.29509 810.517347 199 199 90
610.392864 215.868837 810.517347 194 197 93
610.392864 213.442584 810.517347 192 195 92
610.884736 211.295194 809.547814 185 189 94
610.884736 208.866349 809.547814 155 159 64
610.392864 206.163824 810.517347 95 100 3
610.392864 203.737571 810.517347 140 144 47
610.392864 201.311317 810.517347 174 182 75
610.392864 198.885064 810.517347 186 194 87
608.917245 195.668879 813.425945 185 196 86
608.917245 193.250402 813.425945 189 200 89
608.917245 190.831925 813.425945 172 191 78
608.917245 188.413448 813.425945 179 198 85
608.917245 185.994971 813.425945 165 186 72
608.917245 183.576494 813.425945 165 186 72
609.409118 181.405775 812.456413 165 184 69
609.409118 178.984706 812.456413 164 183 67
611.376609 177.533931 808.578282 160 176 62
611.376609 175.102494 808.578282 163 180 65
613.3441 173.620613 804.700151 172 185 76
613.3441 171.178807 804.700151 172 185 76
619.246572 171.523459 793.065758 178 181 93
619.246572 169.050547 793.065758 172 175 88
621.705936 167.712738 788.218094 250 243 184
609.321235 240.44134 807.684506 229 229 172
609.321235 238.012494 807.684506 167 167 110
608.831031 235.278864 808.656027 174 173 80
608.831031 232.85261 808.656027 196 195 102
607.360419 229.527555 811.570591 203 206 93
607.360419 227.109078 811.570591 204 207 94
607.360419 224.690601 811.570591 208 209 95
607.360419 222.272124 811.570591 203 203 89
607.360419 219.853647 811.570591 196 195 86
607.360419 217.43517 811.570591 192 192 83
607.850623 215.300741 810.59907 183 186 83
607.850623 212.879672 810.59907 184 187 84
608.831031 211.016331 808.656027 171 176 76
608.831031 208.590077 808.656027 179 184 84
608.831031 206.163824 808.656027 178 183 81
608.831031 203.737571 808.656027 172 177 75
607.850623 200.774327 810.59907 170 176 67
607.850623 198.353258 810.59907 179 185 76
607.360419 195.668879 811.570591 179 187 78
607.360419 193.250402 811.570591 182 191 81
606.38001 190.315672 813.513634 181 197 85
606.38001 187.90238 813.513634 208 224 111
606.38001 185.489087 813.513634 176 194 81
606.38001 183.075794 813.513634 169 187 74
607.360419 181.158018 811.570591 166 184 74
607.360419 178.739541 811.570591 163 181 70
609.321235 177.291358 807.684506 162 178 66
609.321235 174.862512 807.684506 163 179 67
611.772255 173.620613 802.826899 169 185 75
611.772255 171.178807 802.826899 169 185 75
617.654705 171.523459 791.168643 173 176 87
617.654705 169.050547 791.168643 166 169 80
620.105725 167.712738 786.311037 227 221 157
607.269198 240.13137 806.794708 202 203 139
607.269198 237.705117 806.794708 165 166 102
605.803592 234.364508 809.715237 175 177 81
605.803592 231.946031 809.715237 202 204 107
604.826521 228.928353 811.662257 206 208 96
604.826521 226.51506 811.662257 207 209 97
604.826521 224.101768 811.662257 211 211 95
604.826521 221.688475 811.662257 206 207 90
604.826521 219.275183 811.662257 196 198 88
604.826521 216.86189 811.662257 187 189 79
605.315056 214.732646 810.688747 165 171 66
605.315056 212.316761 810.688747 165 171 66
605.803592 210.17974 809.715237 165 171 66
605.803592 207.761263 809.715237 159 165 61
605.803592 205.342786 809.715237 165 171 66
605.803592 202.924309 809.715237 157 163 58
605.803592 200.505832 809.715237 150 158 50
605.803592 198.087355 809.715237 158 166 59
604.826521 195.142257 811.662257 162 173 64
604.826521 192.728965 811.662257 164 175 67
603.360914 189.541293 814.582787 163 179 69
603.360914 187.135777 814.582787 184 200 90
603.360914 184.730261 814.582787 178 196 85
603.360914 182.324745 814.582787 186 204 94
604.826521 180.662502 811.662257 179 194 84
604.826521 178.249209 811.662257 163 179 69
607.269198 177.048784 806.794708 166 181 71
607.269198 174.622531 806.794708 163 179 69
609.711875 173.383224 801.927158 168 183 76
609.711875 170.94401 801.927158 166 181 73
615.085766 171.059049 791.218549 171 176 86
615.085766 168.591321 791.218549 171 176 86
618.505514 167.712738 784.403979 194 187 121
618.505514 165.226865 784.403979 255 253 187
604.733632 239.511431 806.884385 173 175 104
604.733632 237.090362 806.884385 165 167 96
603.273031 233.754938 809.810881 180 185 86
603.273031 231.341645 809.810881 193 198 98
601.812431 228.029551 812.737376 202 206 93
601.812431 225.624034 812.737376 205 210 97
601.812431 223.218518 812.737376 208 211 96
601.812431 220.813002 812.737376 210 213 98
601.812431 218.407486 812.737376 208 210 98
601.812431 216.00197 812.737376 194 196 84
601.812431 213.596454 812.737376 172 178 71
601.812431 211.190938 812.737376 164 170 63
603.273031 209.622013 809.810881 157 164 59
603.273031 207.20872 809.810881 155 163 58
603.273031 204.795427 809.810881 155 163 58
603.273031 202.382135 809.810881 154 162 57
602.786164 199.700347 810.786379 155 164 56
602.786164 197.289647 810.786379 162 171 63
601.812431 194.352325 812.737376 165 176 68
601.812431 191.946809 812.737376 168 179 70
601.325564 189.283167 813.712875 162 178 68
601.325564 186.880243 813.712875 160 175 66
601.325564 184.477319 813.712875 164 182 71
601.325564 182.074395 813.712875 194 212 102
601.812431 179.919229 812.737376 177 195 84
601.812431 177.513712 812.737376 161 179 68
605.707365 177.048784 804.933388 165 180 70
605.707365 174.622531 804.933388 162 178 68
608.1417 173.383224 800.055895 167 182 75
608.1417 170.94401 800.055895 167 182 75
613.497235 171.059049 789.325412 170 178 87
613.497235 168.591321 789.325412 172 180 89
616.418436 167.485717 783.472421 176 168 103
616.418436 165.002437 783.472421 255 252 186
604.145533 242.557624 803.072068 252 255 213
602.689938 239.201462 806.004529 164 167 91
602.689938 236.782985 806.004529 164 167 91
600.263947 232.840583 810.891965 175 182 82
600.263947 230.435067 810.891965 183 190 90
599.778749 227.72995 811.869452 196 201 85
599.778749 225.327026 811.869452 202 207 91
598.808352 222.335269 813.824426 206 212 92
598.808352 219.937529 813.824426 205 211 91
598.808352 217.53979 813.824426 198 203 88
598.808352 215.14205 813.824426 199 204 89
598.808352 212.74431 813.824426 194 202 95
598.808352 210.346571 813.824426 180 188 81
600.263947 208.785422 810.891965 169 178 70
600.263947 206.379906 810.891965 165 173 66
600.263947 203.97439 810.891965 160 170 62
600.263947 201.568873 810.891965 160 170 62
599.778749 198.894862 811.869452 169 180 71
599.778749 196.491938 811.869452 175 185 77
598.808352 193.562393 813.824426 176 187 78
598.808352 191.164653 813.824426 175 185 77
598.808352 188.766914 813.824426 167 180 71
598.808352 186.369174 813.824426 164 177 68
598.808352 183.971434 813.824426 163 181 70
598.808352 181.573695 813.824426 196 214 103
600.263947 179.919229 810.891965 168 186 75
600.263947 177.513712 810.891965 162 180 69
603.660334 176.806211 804.049555 161 179 68
603.660334 174.38255 804.049555 159 177 67
606.086326 173.145834 799.16212 163 181 72
606.086326 170.709213 799.16212 164 182 73
611.423506 170.826844 788.409762 168 176 82
611.423506 168.361709 788.409762 174 182 88
614.334695 167.258697 782.544839 175 167 99
614.334695 164.778008 782.544839 253 245 177
602.10017 242.245062 802.190224 230 233 187
600.649582 238.891493 805.128651 159 163 80
600.649582 236.475608 805.128651 165 169 86
598.715463 232.840583 809.046554 172 179 77
598.715463 230.435067 809.046554 181 189 86
596.297815 226.531546 813.943932 191 198 84
596.297815 224.138991 813.943932 193 200 86
596.297815 221.746436 813.943932 197 205 84
596.297815 219.35388 813.943932 200 208 87
596.297815 216.961325 813.943932 198 206 87
596.297815 214.56877 813.943932 198 206 87
596.297815 212.176214 813.943932 190 201 88
596.297815 209.783659 813.943932 188 199 86
597.264874 207.948831 811.984981 179 191 80
597.264874 205.551091 811.984981 169 180 69
597.264874 203.153352 811.984981 165 178 69
597.264874 200.755612 811.984981 167 180 71
597.264874 198.357872 811.984981 171 184 75
597.264874 195.960133 811.984981 173 186 77
596.297815 193.035772 813.943932 177 190 81
596.297815 190.643216 813.943932 177 190 81
596.297815 188.250661 813.943932 170 183 72
596.297815 185.858106 813.943932 167 181 69
596.297815 183.46555 813.943932 170 186 74
596.297815 181.072995 813.943932 181 197 85
598.231934 179.671471 810.02603 171 189 78
598.231934 177.268547 810.02603 166 184 74
601.616641 176.563637 803.1697 164 182 73
601.616641 174.142568 803.1697 161 178 70
604.034289 172.908445 798.272321 159 177 71
604.034289 170.474415 798.272321 163 180 74
608.869585 170.362435 788.477564 167 175 81
608.869585 167.902483 788.477564 175 183 89
611.287233 166.577635 783.580186 178 171 103
611.287233 164.104723 783.580186 246 238 170
599.576284 241.619939 802.293822 203 207 158
598.130701 238.271554 805.238214 161 166 80
598.130701 235.860853 805.238214 164 168 83
595.721397 231.926227 810.145536 165 172 70
595.721397 229.528488 810.145536 195 203 100
593.793953 225.932345 814.071393 191 203 90
593.793953 223.544974 814.071393 192 204 91
593.312092 220.863186 815.052857 195 205 88
593.312092 218.478407 815.052857 193 203 85
593.312092 216.093628 815.052857 191 204 81
593.312092 213.70885 815.052857 189 202 79
593.312092 211.324071 815.052857 182 197 78
593.312092 208.939292 815.052857 181 196 77
594.757675 207.391104 812.108464 174 190 76
594.757675 204.998548 812.108464 169 186 71
593.793953 202.058634 814.071393 168 184 72
593.793953 199.671263 814.071393 170 186 74
593.793953 197.283892 814.071393 173 187 75
593.793953 194.896521 814.071393 177 190 79
593.312092 192.24584 815.052857 181 195 83
593.312092 189.861061 815.052857 180 194 82
593.312092 187.476282 815.052857 174 188 76
593.312092 185.091503 815.052857 171 184 73
593.312092 182.706724 815.052857 173 189 76
593.312092 180.321945 815.052857 174 190 78
595.721397 179.175955 810.145536 165 183 75
595.721397 176.778216 810.145536 162 179 71
599.576284 176.321064 802.293822 161 178 72
599.576284 173.902587 802.293822 156 173 67
602.46745 172.908445 796.405036 157 174 68
602.46745 170.474415 796.405036 158 176 70
605.840477 169.66582 789.534786 165 173 82
605.840477 167.213645 789.534786 174 182 90
608.731643 166.123594 783.646 179 172 104
608.731643 163.655866 783.646 237 230 162
595.618496 240.057131 805.355732 192 196 144
595.138303 237.341645 806.339185 164 167 79
595.138303 234.938722 806.339185 165 168 81
593.217534 231.316657 810.272996 165 175 74
593.217534 228.924102 810.272996 199 209 108
591.776957 225.632744 813.223355 185 198 87
591.776957 223.247965 813.223355 181 195 83
590.816572 220.274353 815.190261 186 198 83
590.816572 217.894759 815.190261 200 212 97
590.816572 215.515164 815.190261 191 203 85
590.816572 213.135569 815.190261 177 189 72
590.816572 210.755975 815.190261 176 193 74
590.816572 208.37638 815.190261 177 194 75
591.296765 206.275649 814.206808 171 192 74
591.296765 203.893463 814.206808 168 190 71
591.296765 201.511276 814.206808 166 187 71
591.296765 199.129089 814.206808 167 188 72
591.296765 196.746902 814.206808 172 188 73
591.296765 194.364716 814.206808 173 189 74
590.816572 191.719218 815.190261 174 190 76
590.816572 189.339624 815.190261 172 188 73
590.816572 186.960029 815.190261 172 188 73
590.816572 184.580434 815.190261 170 187 72
590.816572 182.20084 815.190261 173 189 74
590.816572 179.821245 815.190261 172 188 73
593.217534 178.68044 810.272996 162 179 71
593.217534 176.287884 810.272996 158 176 68
597.539265 176.07849 801.42192 154 171 65
597.539265 173.662606 801.42192 151 169 63
600.420419 172.671056 795.521203 156 175 70
600.420419 170.239618 795.521203 157 176 72
602.821381 168.969205 790.603939 163 173 81
602.821381 166.524807 790.603939 170 180 88
607.143112 166.123594 781.752863 175 165 98
607.143112 163.655866 781.752863 250 240 173
593.591488 239.744569 804.495762 189 193 142
592.634441 236.721707 806.466645 166 169 84
592.634441 234.323967 806.466645 166 169 84
590.720346 230.707087 810.408411 162 171 72
590.720346 228.319716 810.408411 169 178 79
589.284775 225.033542 813.364735 169 185 75
589.284775 222.653948 813.364735 173 188 78
588.806251 219.979937 814.350177 173 187 75
588.806251 217.602934 814.350177 201 215 103
588.806251 215.225932 814.350177 221 233 118
588.806251 212.848929 814.350177 191 203 87
588.806251 210.471927 814.350177 176 193 76
588.806251 208.094925 814.350177 175 192 75
589.284775 205.996786 813.364735 170 191 72
589.284775 203.617191 813.364735 167 189 70
588.806251 200.963917 814.350177 168 190 71
588.806251 198.586915 814.350177 172 193 75
588.806251 196.209912 814.350177 184 201 86
588.806251 193.83291 814.350177 198 215 100
588.806251 191.455908 814.350177 196 207 94
588.806251 189.078905 814.350177 177 189 76
588.806251 186.701903 814.350177 171 185 71
588.806251 184.3249 814.350177 171 185 71
589.284775 182.20084 813.364735 169 185 73
589.284775 179.821245 813.364735 167 183 71
590.720346 178.184924 810.408411 164 182 73
590.720346 175.797553 810.408411 155 172 64
595.505583 175.835917 800.553996 154 171 65
595.505583 173.422624 800.553996 152 170 64
598.855249 172.671056 793.655906 156 173 69
598.855249 170.239618 793.655906 157 174 70
600.769344 168.737 789.71414 167 175 83
600.769344 166.295194 789.71414 168 176 84
606.511629 166.577635 777.888843 175 163 97
606.511629 164.104723 777.888843 255 245 178
591.090963 239.119446 804.6272 189 190 138
590.137253 236.101768 806.60206 171 175 90
590.137253 233.709213 806.60206 166 171 85
588.706688 230.402302 809.56435 159 172 75
588.706688 228.017523 809.56435 162 176 78
587.752977 225.033542 811.53921 168 183 78
587.752977 222.653948 811.53921 170 185 80
586.799267 219.68552 813.51407 170 186 74
586.799267 217.31111 813.51407 174 190 78
586.799267 214.9367 813.51407 186 201 89
586.799267 212.562289 813.51407 177 193 81
586.799267 210.187879 813.51407 168 184 70
586.799267 207.813469 813.51407 169 186 71
587.276122 205.717922 812.52664 166 186 68
587.276122 203.34092 812.52664 166 186 68
586.799267 200.690238 813.51407 171 190 74
586.799267 198.315828 813.51407 192 211 95
586.799267 195.941417 813.51407 213 229 117
586.799267 193.567007 813.51407 211 227 115
586.799267 191.192597 813.51407 189 199 91
586.799267 188.818187 813.51407 167 177 69
586.799267 186.443776 813.51407 165 177 66
586.799267 184.069366 813.51407 165 177 66
587.276122 181.947898 812.52664 166 181 71
587.276122 179.570895 812.52664 163 179 69
588.706688 177.937166 809.56435 156 173 67
588.706688 175.552387 809.56435 151 169 63
593.952094 175.835917 798.70262 151 169 63
593.952094 173.422624 798.70262 151 169 63
597.290079 172.671056 791.790609 155 169 69
597.290079 170.239618 791.790609 160 174 74
599.1975 168.737 787.840889 168 173 85
599.1975 166.295194 787.840889 161 166 78
603.966051 166.123594 777.966588 187 170 103
603.966051 163.655866 777.966588 255 243 175
589.547485 239.119446 802.787755 191 193 140
588.597112 236.101768 804.766592 165 169 86
588.597112 233.709213 804.766592 165 169 86
586.696366 230.097517 808.724267 159 170 75
586.696366 227.71533 808.724267 160 171 77
586.22118 225.033542 809.713685 164 181 75
586.22118 222.653948 809.713685 165 182 77
585.270807 219.68552 811.692522 168 186 75
585.270807 217.31111 811.692522 171 189 78
585.270807 214.9367 811.692522 173 189 76
585.270807 212.562289 811.692522 166 182 69
585.270807 210.187879 811.692522 164 182 69
585.270807 207.813469 811.692522 164 182 69
585.270807 205.439059 811.692522 165 184 69
585.270807 203.064648 811.692522 166 185 70
585.270807 200.690238 811.692522 165 184 69
585.270807 198.315828 811.692522 165 184 69
584.79562 195.672922 812.681941 155 173 60
584.79562 193.301104 812.681941 156 174 61
584.79562 190.929286 812.681941 165 178 69
584.79562 188.557468 812.681941 162 175 66
584.79562 186.18565 812.681941 158 171 64
584.79562 183.813832 812.681941 156 168 62
585.270807 181.694956 811.692522 154 169 62
585.270807 179.320545 811.692522 153 168 61
587.171553 177.937166 807.734848 152 167 61
587.171553 175.552387 807.734848 151 165 60
592.398604 175.835917 796.851243 151 165 60
592.398604 173.422624 796.851243 153 168 63
595.724909 172.671056 789.925312 155 169 69
595.724909 170.239618 789.925312 160 174 74
597.625655 168.737 785.967638 171 172 85
597.625655 166.295194 785.967638 166 166 79
602.37752 166.123594 776.073451 211 192 125
602.37752 163.655866 776.073451 255 238 172
588.004007 239.119446 800.948309 214 216 165
587.056972 236.101768 802.931124 164 167 89
587.056972 233.709213 802.931124 161 165 86
585.1629 230.097517 806.896753 160 171 79
585.1629 227.71533 806.896753 160 171 79
584.215865 224.733942 808.879567 158 172 69
584.215865 222.356939 808.879567 163 178 75
583.742347 219.68552 809.870974 168 183 76
583.742347 217.31111 809.870974 176 191 84
583.268829 214.647467 810.862382 175 191 81
583.268829 212.275649 810.862382 167 182 73
583.268829 209.903831 810.862382 165 184 71
583.268829 207.532013 810.862382 169 187 74
583.742347 205.439059 809.870974 168 186 73
583.742347 203.064648 809.870974 166 185 72
583.268829 200.416559 810.862382 157 176 62
583.268829 198.044741 810.862382 155 173 60
583.268829 195.672922 810.862382 156 174 61
583.268829 193.301104 810.862382 158 177 64
583.268829 190.929286 810.862382 158 173 63
583.268829 188.557468 810.862382 154 170 60
583.268829 186.18565 810.862382 154 169 62
583.268829 183.813832 810.862382 153 168 61
583.742347 181.694956 809.870974 151 165 60
583.742347 179.320545 809.870974 149 164 59
585.636418 177.937166 805.905346 151 165 60
585.636418 175.552387 805.905346 151 165 60
590.845114 175.835917 794.999866 151 165 62
590.845114 173.422624 794.999866 153 167 65
594.159739 172.671056 788.060015 158 169 72
594.159739 170.239618 788.060015 160 172 75
596.527329 168.969205 783.102979 174 172 88
596.527329 166.524807 783.102979 169 167 84
600.788989 166.123594 774.180314 227 202 140
600.788989 163.655866 774.180314 253 229 167
587.404228 239.744569 797.122072 245 246 195
585.516831 236.101768 801.095656 163 164 86
585.516831 233.709213 801.095656 165 166 89
583.157585 229.792732 806.062635 162 170 79
583.157585 227.413137 806.062635 162 170 79
582.213886 224.434341 808.049427 156 170 70
582.213886 222.059931 808.049427 158 172 71
581.742037 219.391104 809.042822 161 176 71
581.742037 217.019286 809.042822 159 174 68
581.742037 214.647467 809.042822 163 179 69
581.742037 212.275649 809.042822 166 181 71
581.742037 209.903831 809.042822 163 179 67
581.742037 207.532013 809.042822 167 183 71
581.742037 205.160195 809.042822 170 188 75
581.742037 202.788377 809.042822 159 178 65
581.742037 200.416559 809.042822 151 169 59
581.742037 198.044741 809.042822 151 169 59
581.270188 195.404427 810.036218 155 173 62
581.270188 193.035201 810.036218 157 175 64
581.270188 190.665975 810.036218 156 174 63
581.270188 188.296749 810.036218 156 174 63
581.270188 185.927523 810.036218 155 172 64
581.270188 183.558297 810.036218 150 168 59
581.742037 181.442014 809.042822 149 164 59
581.742037 179.070195 809.042822 147 162 57
584.101283 177.937166 804.075843 148 163 60
584.101283 175.552387 804.075843 151 165 62
589.763474 176.07849 792.155093 151 165 64
589.763474 173.662606 792.155093 152 166 66
593.066419 172.908445 785.201323 158 167 73
593.066419 170.474415 785.201323 163 172 78
596.841212 169.898025 777.254156 173 168 88
596.841212 167.443258 777.254156 182 176 96
599.200458 166.123594 772.287177 233 206 145
599.200458 163.655866 772.287177 248 221 160
583.97669 236.101768 799.260188 178 174 98
583.97669 233.709213 799.260188 172 168 92
581.625787 229.792732 804.23711 161 167 76
581.625787 227.413137 804.23711 162 168 77
580.685426 224.434341 806.227879 160 171 77
580.685426 222.059931 806.227879 156 166 72
580.215246 219.391104 807.223263 151 165 64
580.215246 217.019286 807.223263 153 167 67
580.215246 214.647467 807.223263 155 170 63
580.215246 212.275649 807.223263 160 175 68
580.215246 209.903831 807.223263 158 173 63
580.215246 207.532013 807.223263 155 171 61
580.215246 205.160195 807.223263 152 171 58
580.215246 202.788377 807.223263 150 169 55
580.215246 200.416559 807.223263 150 168 57
580.215246 198.044741 807.223263 150 168 57
579.745065 195.404427 808.218647 152 170 60
579.745065 193.035201 808.218647 150 168 57
579.274884 190.402665 809.214032 148 166 55
579.274884 188.036031 809.214032 148 166 55
579.745065 185.927523 808.218647 148 165 57
579.745065 183.558297 808.218647 148 165 57
580.215246 181.442014 807.223263 147 164 58
580.215246 179.070195 807.223263 144 162 56
582.566149 177.937166 802.246341 146 162 59
582.566149 175.552387 802.246341 148 165 61
588.678496 176.321064 789.306344 152 166 66
588.678496 173.902587 789.306344 153 167 67
591.969761 173.145834 782.338653 159 164 76
591.969761 170.709213 782.338653 161 166 78
596.201386 170.362435 773.380193 177 169 92
596.201386 167.902483 773.380193 197 189 112
599.49265 167.031676 766.412502 231 202 143
582.43655 236.101768 797.42472 207 201 128
582.43655 233.709213 797.42472 170 164 91
580.09399 229.792732 802.411585 162 165 75
580.09399 227.413137 802.411585 164 167 77
578.688454 224.13474 805.403704 161 169 75
578.688454 221.762922 805.403704 158 167 73
578.688454 219.391104 805.403704 153 165 66
578.688454 217.019286 805.403704 150 161 62
578.688454 214.647467 805.403704 148 163 58
578.688454 212.275649 805.403704 148 163 58
578.688454 209.903831 805.403704 152 167 59
578.688454 207.532013 805.403704 152 167 59
578.688454 205.160195 805.403704 149 167 58
578.688454 202.788377 805.403704 149 167 58
578.219942 200.142879 806.401077 149 167 58
578.219942 197.773653 806.401077 147 164 56
578.219942 195.404427 806.401077 148 165 57
578.219942 193.035201 806.401077 144 162 54
577.75143 190.402665 807.39845 143 161 52
577.75143 188.036031 807.39845 144 162 54
578.219942 185.927523 806.401077 147 164 56
578.219942 183.558297 806.401077 147 164 56
579.156966 181.694956 804.406331 147 164 58
579.156966 179.320545 804.406331 144 162 56
581.499526 178.184924 799.419466 149 165 64
581.499526 175.797553 799.419466 150 167 66
588.058693 176.806211 785.456244 153 166 71
588.058693 174.38255 785.456244 154 167 72
591.806789 173.858002 777.47726 162 164 79
591.806789 171.413604 777.47726 166 169 84
596.023397 171.059049 768.500903 190 175 103
596.023397 168.591321 768.500903 202 186 114
598.834469 167.485717 762.516665 235 201 146
580.896409 236.101768 795.589251 236 226 159
580.896409 233.709213 795.589251 183 174 106
578.562192 229.792732 800.586059 166 162 77
578.562192 227.413137 800.586059 170 165 81
577.161662 224.13474 803.584144 162 168 75
577.161662 221.762922 803.584144 161 167 74
577.161662 219.391104 803.584144 157 168 71
577.161662 217.019286 803.584144 151 162 65
577.161662 214.647467 803.584144 147 161 61
577.161662 212.275649 803.584144 147 161 61
577.161662 209.903831 803.584144 149 164 61
577.161662 207.532013 803.584144 153 167 65
577.161662 205.160195 803.584144 151 169 61
577.161662 202.788377 803.584144 149 167 58
576.694819 200.142879 804.583506 149 167 58
576.694819 197.773653 804.583506 146 163 55
576.694819 195.404427 804.583506 146 163 55
576.694819 193.035201 804.583506 143 161 52
576.227976 190.402665 805.582867 144 162 54
576.227976 188.036031 805.582867 147 164 56
576.694819 185.927523 804.583506 146 163 57
576.694819 183.558297 804.583506 146 163 57
577.628506 181.694956 802.584783 144 161 58
577.628506 179.320545 802.584783 146 162 59
581.830096 179.175955 793.590528 148 164 65
581.830096 176.778216 793.590528 151 167 69
586.965373 177.048784 782.597551 154 167 74
586.965373 174.622531 782.597551 155 168 75
592.100649 174.807559 771.604573 171 168 87
592.100649 172.352792 771.604573 183 181 100
594.434866 171.059049 766.607765 199 175 110
594.434866 168.591321 766.607765 204 181 116
598.636456 168.166779 757.613511 235 202 150
580.286618 236.721707 791.751083 254 239 178
580.286618 234.323967 791.751083 207 192 131
577.030395 229.792732 798.760534 174 162 81
577.030395 227.413137 798.760534 171 159 79
575.634871 224.13474 801.764585 164 168 75
575.634871 221.762922 801.764585 163 166 74
575.634871 219.391104 801.764585 158 167 71
575.634871 217.019286 801.764585 155 164 68
575.634871 214.647467 801.764585 147 161 61
575.634871 212.275649 801.764585 147 161 61
575.634871 209.903831 801.764585 146 160 60
575.634871 207.532013 801.764585 149 163 63
575.634871 205.160195 801.764585 149 164 59
575.634871 202.788377 801.764585 151 165 60
575.169696 200.142879 802.765935 151 165 60
575.169696 197.773653 802.765935 148 163 58
575.169696 195.404427 802.765935 142 159 53
575.169696 193.035201 802.765935 147 164 58
574.704521 190.402665 803.767285 148 165 59
574.704521 188.036031 803.767285 148 165 59
575.169696 185.927523 802.765935 143 160 57
575.169696 183.558297 802.765935 147 163 60
576.56522 181.947898 799.761884 147 163 62
576.56522 179.570895 799.761884 148 164 63
581.682142 179.919229 788.747032 149 165 68
581.682142 177.513712 788.747032 152 168 72
586.333889 177.533931 778.733531 158 166 77
586.333889 175.102494 778.733531 163 171 82
592.381161 175.757115 765.715978 181 172 98
592.381161 173.29198 765.715978 189 181 106
595.172209 172.220074 759.707877 201 171 113
595.172209 169.739385 759.707877 203 174 115
597.498083 168.3938 754.701126 241 208 157
578.74314 234.323967 789.911638 248 227 173
575.498597 229.792732 796.935009 206 186 115
575.498597 227.413137 796.935009 181 160 90
574.108079 224.13474 799.945025 171 169 81
574.108079 221.762922 799.945025 165 163 75
574.108079 219.391104 799.945025 160 166 73
574.108079 217.019286 799.945025 159 165 72
574.108079 214.647467 799.945025 150 161 66
574.108079 212.275649 799.945025 146 157 63
574.108079 209.903831 799.945025 145 158 61
574.108079 207.532013 799.945025 146 160 62
574.108079 205.160195 799.945025 148 162 62
574.108079 202.788377 799.945025 149 163 63
573.644573 200.142879 800.948364 146 160 58
573.644573 197.773653 800.948364 146 160 58
573.644573 195.404427 800.948364 144 158 55
573.644573 193.035201 800.948364 147 161 59
573.644573 190.665975 800.948364 143 160 57
573.644573 188.296749 800.948364 144 161 58
574.108079 186.18565 799.945025 144 161 60
574.108079 183.813832 799.945025 148 164 63
575.962104 182.453782 795.93167 149 165 66
575.962104 180.071595 795.93167 148 164 65
581.987683 180.91026 782.888266 151 162 67
581.987683 178.494375 782.888266 157 168 73
585.695732 178.019078 774.861556 165 167 85
585.695732 175.582456 774.861556 170 172 89
591.257805 175.994505 762.821491 185 174 102
591.257805 173.526777 762.821491 185 174 102
594.965854 172.916688 754.794781 192 160 105
594.965854 170.428223 754.794781 227 195 139
577.199662 234.323967 788.072192 251 230 180
574.428637 230.097517 794.104157 243 217 153
574.428637 227.71533 794.104157 200 174 110
573.043125 224.434341 797.120139 171 161 80
573.043125 222.059931 797.120139 172 162 81
572.581288 219.391104 798.125466 163 166 76
572.581288 217.019286 798.125466 162 165 75
572.581288 214.647467 798.125466 155 165 71
572.581288 212.275649 798.125466 149 160 65
572.581288 209.903831 798.125466 146 157 63
572.581288 207.532013 798.125466 145 156 61
572.581288 205.160195 798.125466 148 162 64
572.581288 202.788377 798.125466 146 160 62
572.581288 200.416559 798.125466 146 160 62
572.581288 198.044741 798.125466 146 160 62
572.581288 195.672922 798.125466 147 161 61
572.581288 193.301104 798.125466 147 161 61
572.581288 190.929286 798.125466 146 160 60
572.581288 188.557468 798.125466 144 158 57
573.504963 186.701903 796.114811 147 161 63
573.504963 184.3249 796.114811 149 163 65
576.275987 183.46555 790.082847 151 164 68
576.275987 181.072995 790.082847 149 163 67
582.279875 181.901291 777.013592 156 164 73
582.279875 179.475038 777.013592 162 170 79
585.974574 178.989372 768.970973 172 169 90
585.974574 176.542382 768.970973 178 174 96
589.669274 175.994505 760.928354 189 173 103
589.669274 173.526777 760.928354 176 160 91
593.825811 173.148893 751.880408 198 163 111
593.825811 170.657836 751.880408 246 211 159
573.35534 230.402302 791.269327 250 218 161
573.35534 228.017523 791.269327 234 202 144
571.514665 224.434341 795.298591 179 161 88
571.514665 222.059931 795.298591 180 163 89
571.054496 219.391104 796.305907 166 166 81
571.054496 217.019286 796.305907 163 163 79
571.054496 214.647467 796.305907 157 165 74
571.054496 212.275649 796.305907 153 161 69
571.054496 209.903831 796.305907 146 157 65
571.054496 207.532013 796.305907 146 157 65
571.054496 205.160195 796.305907 153 164 72
571.054496 202.788377 796.305907 146 157 65
571.054496 200.416559 796.305907 147 156 59
571.054496 198.044741 796.305907 148 157 61
571.054496 195.672922 796.305907 147 161 63
571.054496 193.301104 796.305907 146 160 62
571.514665 191.192597 795.298591 145 158 61
571.514665 188.818187 795.298591 142 156 58
572.895171 187.218155 792.276643 147 160 65
572.895171 184.835969 792.276643 148 161 66
577.036691 184.730261 783.210799 151 164 68
577.036691 182.324745 783.210799 153 166 71
582.098548 182.644564 772.130324 169 171 86
582.098548 180.210535 772.130324 172 175 90
587.620574 180.687387 760.042533 179 176 97
587.620574 178.222251 760.042533 183 180 102
590.841756 177.41884 752.991321 180 158 95
590.841756 174.935559 752.991321 173 151 88
593.60277 173.845508 746.947425 225 190 138
571.820205 228.017523 789.439825 253 218 166
569.986205 224.434341 793.477043 219 191 126
569.986205 222.059931 793.477043 183 155 89
569.527704 219.391104 794.486347 164 159 79
569.527704 217.019286 794.486347 166 161 81
569.527704 214.647467 794.486347 161 166 78
569.527704 212.275649 794.486347 158 163 75
569.527704 209.903831 794.486347 148 156 67
569.527704 207.532013 794.486347 149 157 68
569.527704 205.160195 794.486347 156 164 73
569.527704 202.788377 794.486347 150 158 67
569.527704 200.416559 794.486347 149 158 64
569.527704 198.044741 794.486347 149 158 64
569.986205 195.941417 793.477043 149 160 63
569.986205 193.567007 793.477043 149 160 63
570.903205 191.719218 791.458434 148 159 62
570.903205 189.339624 791.458434 149 160 63
574.112707 188.766914 784.393302 152 163 70
574.112707 186.369174 784.393302 152 163 70
578.239209 186.247913 775.309561 158 166 77
578.239209 183.826844 775.309561 160 167 78
581.90721 183.387838 767.235125 170 170 88
581.90721 180.946031 767.235125 177 177 95
587.409213 181.415107 755.12347 187 176 105
587.409213 178.942195 755.12347 179 168 96
590.618715 178.131007 748.058339 183 149 92
590.618715 175.63995 748.058339 210 176 119
571.655566 228.924102 784.576443 252 214 168
568.914576 224.733942 790.644202 255 221 162
568.914576 222.356939 790.644202 222 186 127
568.000913 219.391104 792.666788 177 159 87
568.000913 217.019286 792.666788 174 156 85
568.000913 214.647467 792.666788 166 166 81
568.000913 212.275649 792.666788 163 163 79
568.000913 209.903831 792.666788 155 161 72
568.000913 207.532013 792.666788 153 158 70
568.000913 205.160195 792.666788 159 164 76
568.000913 202.788377 792.666788 158 163 75
568.457744 200.690238 791.655495 157 162 72
568.457744 198.315828 791.655495 153 159 68
569.371408 196.478407 789.632909 155 161 68
569.371408 194.098813 789.632909 153 159 66
571.655566 193.035772 784.576443 153 161 69
571.655566 190.643216 784.576443 155 163 72
575.310218 190.315672 776.486098 157 165 76
575.310218 187.90238 776.486098 162 170 81
578.50804 187.259682 769.407046 165 168 81
578.50804 184.828244 769.407046 166 169 82
582.619524 184.626627 760.305408 183 175 100
582.619524 182.17186 760.305408 184 176 101
585.817345 181.415107 753.226356 189 165 103
585.817345 178.942195 753.226356 182 158 96
589.471998 178.368396 745.136011 219 179 127
589.471998 175.874747 745.136011 247 207 155
568.749936 225.632744 785.78082 254 212 160
568.749936 223.247965 785.78082 255 215 163
567.384447 219.979937 788.820665 224 191 127
567.384447 217.602934 788.820665 191 158 94
566.929284 214.9367 789.833947 179 167 89
566.929284 212.562289 789.833947 178 166 88
566.929284 210.187879 789.833947 164 164 80
566.929284 207.813469 789.833947 164 164 80
567.384447 205.717922 788.820665 162 164 79
567.384447 203.34092 788.820665 163 165 80
568.294773 201.511276 786.794102 162 164 79
568.294773 199.129089 786.794102 162 164 79
570.115425 197.820882 782.740975 162 164 77
570.115425 195.428327 782.740975 162 164 77
573.756729 195.142257 774.634721 162 164 77
573.756729 192.728965 774.634721 164 167 79
576.032544 191.606304 769.568312 164 166 81
576.032544 189.180051 769.568312 167 170 85
577.853195 187.765566 765.515186 175 169 89
577.853195 185.328944 765.515186 182 176 96
582.859988 185.617658 754.369087 191 172 103
582.859988 183.152522 754.369087 190 171 102
586.046129 182.385401 747.276115 197 163 104
586.046129 179.90212 747.276115 207 174 114
589.23227 179.080564 740.183143 234 194 142
567.668296 223.544974 782.936047 255 213 166
566.307813 220.274353 785.981858 255 218 164
566.307813 217.894759 785.981858 239 196 142
566.307813 215.515164 785.981858 203 175 107
566.307813 213.135569 785.981858 190 162 94
566.307813 210.755975 785.981858 173 163 85
566.307813 208.37638 785.981858 174 164 86
567.214801 206.554513 783.951318 171 166 86
567.214801 204.169734 783.951318 171 166 86
568.575284 202.605993 780.905507 168 166 85
568.575284 200.213438 780.905507 169 167 86
570.842756 199.163357 775.829155 170 165 85
570.842756 196.757841 775.829155 171 166 86
574.470711 196.458811 767.706993 170 165 85
574.470711 194.032557 767.706993 171 166 86
575.831194 192.380683 764.661182 176 169 89
575.831194 189.946654 764.661182 180 172 93
579.005654 189.283218 757.55429 184 169 95
579.005654 186.831044 757.55429 188 173 98
581.273126 185.617658 752.477938 198 166 106
581.273126 183.152522 752.477938 203 172 112
585.80807 183.113121 742.325235 219 177 125
585.80807 180.622064 742.325235 237 195 143
567.938795 224.733008 777.035521 252 208 166
566.131492 221.157603 781.104556 252 208 157
566.131492 218.770232 781.104556 252 208 157
565.679667 216.093628 782.121815 253 210 152
565.679667 213.70885 782.121815 232 189 131
565.679667 211.324071 782.121815 197 169 101
565.679667 208.939292 782.121815 185 158 90
567.035144 207.391104 779.070039 181 164 90
567.035144 204.998548 779.070039 188 171 97
569.294272 203.97439 773.983744 183 168 94
569.294272 201.568873 773.983744 183 168 94
572.005227 200.774327 767.880191 182 167 92
572.005227 198.353258 767.880191 182 167 92
573.81253 196.985432 763.811155 183 168 94
573.81253 194.553995 763.811155 183 168 94
575.619832 193.155062 759.74212 186 168 97
575.619832 190.713256 759.74212 188 170 99
579.686264 190.547929 750.586789 198 170 107
579.686264 188.082793 750.586789 201 172 109
582.397218 187.104204 744.483236 212 171 116
582.397218 184.623516 744.483236 223 181 127
584.656347 183.355695 739.396942 237 198 145
565.495003 221.746436 777.23457 253 209 160
565.495003 216.961325 777.23457 249 203 152
565.495003 214.56877 777.23457 250 204 153
565.495003 212.176214 777.23457 251 208 150
565.495003 209.783659 777.23457 233 191 132
567.295632 208.506558 773.157581 213 180 116
567.295632 206.103634 773.157581 207 174 110
569.546417 205.069107 768.061343 201 171 106
569.546417 202.653222 768.061343 196 166 101
571.347045 201.311317 763.984353 195 165 100
571.347045 198.885064 763.984353 194 164 99
573.147674 197.512054 759.907363 194 164 99
573.147674 195.075432 759.907363 195 165 100
575.848616 194.187568 753.791878 203 169 108
575.848616 191.735393 753.791878 206 173 111
578.099402 190.547929 748.695641 214 173 119
578.099402 188.082793 748.695641 216 174 120
581.700659 187.59972 740.541661 226 179 129
581.700659 185.113847 740.541661 241 194 144
566.197305 216.00197 770.292922 249 202 154
566.197305 213.596454 770.292922 252 203 153
566.197305 211.190938 770.292922 252 203 153
567.991259 209.900876 766.207978 235 189 136
567.991259 207.484991 766.207978 220 174 121
569.336724 205.890145 763.144269 215 172 116
569.336724 203.466483 763.144269 211 168 112
571.130678 202.116802 759.059325 212 171 114
571.130678 199.682773 759.059325 213 172 116
573.37312 198.565296 753.953145 212 171 114
573.37312 196.118306 753.953145 213 172 116
575.167074 194.703821 749.868201 216 172 121
575.167074 192.246462 749.868201 217 173 122
577.858005 191.306755 743.740784 221 175 124
577.858005 188.833843 743.740784 228 182 131
565.989281 212.035305 765.377837 252 202 155
567.32974 210.458603 762.308163 251 202 152
567.32974 208.037534 762.308163 245 196 146
568.22338 206.163824 760.261714 232 183 136
568.22338 203.737571 760.261714 225 176 129
569.56384 202.116802 757.19204 226 177 128
569.56384 199.682773 757.19204 224 175 125
572.244759 198.828607 751.052692 225 176 127
572.244759 196.379024 751.052692 225 176 127
573.585218 194.703821 747.983018 223 174 124
573.585218 192.246462 747.983018 225 176 127
577.159777 191.812639 739.79722 232 185 135
567.55185 206.711183 756.349967 246 197 150
567.55185 204.279745 756.349967 239 190 143
568.887303 202.653792 753.274328 240 191 144
568.887303 200.214578 753.274328 231 182 134
571.558211 199.355228 747.123048 230 180 133
571.558211 196.900461 747.123048 230 180 133
573.338816 195.4782 743.022195 233 186 138
